<svg width="100" height="100" viewBox="0 0 100 100" fill="none" xmlns="http://www.w3.org/2000/svg"><path d="M84.382 89.997c.103.002.206.003.31.003 8.367 0 15.15-6.784 15.15-15.151a15.13 15.13 0 0 0-6.23-12.248c.432-1.407.664-2.901.664-4.45C94.276 49.783 87.493 43 79.125 43c-5.824 0-10.88 3.286-13.417 8.105a15.36 15.36 0 0 0-1.425-.066c-6.136 0-11.42 3.648-13.802 8.893C43.387 61.193 38 67.392 38 74.849c0 8.367 6.783 15.15 15.151 15.15.104 0 .207 0 .31-.002V90h30.92v-.003z" fill="#F1F1F1"/><path d="M89.68 47.019a30.748 30.748 0 0 1-13.556 3.13c-17.258 0-31.249-14.199-31.249-31.714 0-6.875 2.156-13.24 5.819-18.435C40.224 5.124 33 15.997 33 28.584c0 17.515 13.99 31.714 31.25 31.714 10.483 0 19.761-5.24 25.43-13.28z" fill="#93BEFF"/><path d="M21.5 89.996a17.74 17.74 0 0 1-.35.004C11.678 90 4 82.35 4 72.914c0-5.675 2.777-10.704 7.052-13.81a17.022 17.022 0 0 1-.752-5.018C10.3 44.649 17.98 37 27.45 37a17.156 17.156 0 0 1 15.187 9.14c.53-.05 1.069-.074 1.612-.074a17.156 17.156 0 0 1 15.623 10.027C67.903 57.516 74 64.506 74 72.914 74 82.35 66.322 90 56.85 90c-.117 0-.233-.001-.35-.004V90h-35v-.004z" fill="#fff" filter="url(#filter0_d)"/><defs><filter id="filter0_d" x="1" y="32" width="78" height="61" filterUnits="userSpaceOnUse" color-interpolation-filters="sRGB"><feFlood flood-opacity="0" result="BackgroundImageFix"/><feColorMatrix in="SourceAlpha" values="0 0 0 0 0 0 0 0 0 0 0 0 0 0 0 0 0 0 127 0"/><feOffset dx="1" dy="-1"/><feGaussianBlur stdDeviation="2"/><feColorMatrix values="0 0 0 0 0 0 0 0 0 0 0 0 0 0 0 0 0 0 0.25 0"/><feBlend in2="BackgroundImageFix" result="effect1_dropShadow"/><feBlend in="SourceGraphic" in2="effect1_dropShadow" result="shape"/></filter></defs></svg>