<svg width="100" height="100" viewBox="0 0 100 100" fill="none" xmlns="http://www.w3.org/2000/svg"><path d="M29.25 65.596c-.141.002-.283.004-.425.004C17.324 65.6 8 56.276 8 44.775c0-6.917 3.373-13.047 8.563-16.834a20.824 20.824 0 0 1-.913-6.116C15.65 10.324 24.974 1 36.475 1c8.006 0 14.956 4.517 18.441 11.14.645-.06 1.298-.09 1.959-.09 8.433 0 15.696 5.013 18.97 12.223C85.597 26.007 93 34.526 93 44.775 93 56.276 83.676 65.6 72.175 65.6c-.142 0-.284-.001-.425-.004v.004h-42.5v-.004z" fill="#fff"/><path d="M78.732 65.893a.893.893 0 1 1 1.786 0v5.052l2.793-2.793a.67.67 0 0 1 .947.947l-3.74 3.74v3.642h3.837l3.738-3.738a.67.67 0 0 1 .947.947l-2.791 2.791h4.858a.893.893 0 1 1 0 1.786h-5.11l3.043 3.044a.67.67 0 1 1-.947.947l-3.99-3.991h-3.585v4.088l3.74 3.74a.67.67 0 0 1-.947.947l-2.793-2.793v4.858a.893.893 0 1 1-1.786 0V84l-3.042 3.043a.67.67 0 0 1-.947-.947l3.99-3.99v-3.838H75.09l-3.99 3.99a.67.67 0 0 1-.948-.946l3.044-3.044h-5.304a.893.893 0 1 1 0-1.786h5.051l-2.79-2.791a.67.67 0 0 1 .946-.947l3.738 3.738h3.894v-3.393L74.743 69.1a.67.67 0 1 1 .947-.947l3.042 3.042v-5.301z" fill="url(#paint0_linear)"/><rect x="43" y="58" width="5" height="24" rx="2.5" fill="url(#paint1_linear)"/><rect x="55" y="69" width="5" height="23" rx="2.5" fill="url(#paint2_linear)"/><path d="M22.732 65.893a.893.893 0 1 1 1.786 0v5.052l2.793-2.793a.67.67 0 0 1 .947.947l-3.74 3.74v3.642h3.837l3.738-3.738a.67.67 0 0 1 .947.947l-2.791 2.791h4.858a.893.893 0 1 1 0 1.786h-5.11l3.043 3.044a.67.67 0 1 1-.947.947l-3.99-3.991h-3.585v4.088l3.74 3.74a.67.67 0 0 1-.947.947l-2.793-2.793v4.858a.893.893 0 1 1-1.786 0V84l-3.042 3.043a.67.67 0 0 1-.947-.947l3.99-3.99v-3.838H19.09l-3.99 3.99a.67.67 0 0 1-.948-.946l3.044-3.044h-5.304a.893.893 0 1 1 0-1.786h5.051l-2.79-2.791a.67.67 0 0 1 .946-.947l3.738 3.738h3.894v-3.393L18.743 69.1a.67.67 0 1 1 .947-.947l3.042 3.042v-5.301z" fill="url(#paint3_linear)"/><defs><linearGradient id="paint0_linear" x1="79.5" y1="65" x2="79.5" y2="90" gradientUnits="userSpaceOnUse"><stop stop-color="#75BDFF"/><stop offset=".5" stop-color="#319CFF"/><stop offset=".99" stop-color="#75BDFF"/></linearGradient><linearGradient id="paint1_linear" x1="45.5" y1="58" x2="45.5" y2="82" gradientUnits="userSpaceOnUse"><stop stop-color="#319CFF"/><stop offset="1" stop-color="#75BDFF"/></linearGradient><linearGradient id="paint2_linear" x1="57.5" y1="69" x2="57.5" y2="92" gradientUnits="userSpaceOnUse"><stop stop-color="#319CFF"/><stop offset="1" stop-color="#75BDFF"/></linearGradient><linearGradient id="paint3_linear" x1="23.5" y1="65" x2="23.5" y2="90" gradientUnits="userSpaceOnUse"><stop stop-color="#75BDFF"/><stop offset=".5" stop-color="#319CFF"/><stop offset=".99" stop-color="#75BDFF"/></linearGradient></defs></svg>