<svg width="100" height="100" viewBox="0 0 100 100" fill="none" xmlns="http://www.w3.org/2000/svg"><path d="M83 36.5C83 54.45 68.225 69 50 69S17 54.45 17 36.5 31.775 4 50 4s33 14.55 33 32.5z" fill="#FFE353"/><path d="M81 85.997c.093.002.186.003.28.003C88.857 86 95 79.794 95 72.138c0-4.604-2.222-8.685-5.642-11.205.391-1.288.602-2.655.602-4.071C89.96 49.206 83.817 43 76.24 43c-5.274 0-9.853 3.007-12.15 7.416-.424-.04-.855-.06-1.29-.06-5.556 0-10.341 3.336-12.498 8.135C43.878 59.645 39 65.316 39 72.138 39 79.794 45.143 86 52.72 86c.093 0 .187-.001.28-.003V86h28v-.003z" fill="#F1F1F1" filter="url(#filter0_d)"/><path d="M23.25 85.996c-.121.003-.243.004-.365.004C13.007 86 5 78.062 5 68.27c0-5.89 2.896-11.108 7.354-14.333a17.587 17.587 0 0 1-.784-5.207c0-9.792 8.008-17.73 17.885-17.73a17.903 17.903 0 0 1 15.838 9.485 18.265 18.265 0 0 1 1.682-.077c7.243 0 13.48 4.268 16.292 10.406C71.641 52.29 78 59.544 78 68.27 78 78.062 69.993 86 60.115 86c-.122 0-.244-.001-.365-.004V86h-36.5v-.004z" fill="#fff" filter="url(#filter1_d)"/><defs><filter id="filter0_d" x="36" y="38" width="64" height="51" filterUnits="userSpaceOnUse" color-interpolation-filters="sRGB"><feFlood flood-opacity="0" result="BackgroundImageFix"/><feColorMatrix in="SourceAlpha" values="0 0 0 0 0 0 0 0 0 0 0 0 0 0 0 0 0 0 127 0"/><feOffset dx="1" dy="-1"/><feGaussianBlur stdDeviation="2"/><feColorMatrix values="0 0 0 0 0 0 0 0 0 0 0 0 0 0 0 0 0 0 0.25 0"/><feBlend in2="BackgroundImageFix" result="effect1_dropShadow"/><feBlend in="SourceGraphic" in2="effect1_dropShadow" result="shape"/></filter><filter id="filter1_d" x="2" y="26" width="81" height="63" filterUnits="userSpaceOnUse" color-interpolation-filters="sRGB"><feFlood flood-opacity="0" result="BackgroundImageFix"/><feColorMatrix in="SourceAlpha" values="0 0 0 0 0 0 0 0 0 0 0 0 0 0 0 0 0 0 127 0"/><feOffset dx="1" dy="-1"/><feGaussianBlur stdDeviation="2"/><feColorMatrix values="0 0 0 0 0 0 0 0 0 0 0 0 0 0 0 0 0 0 0.25 0"/><feBlend in2="BackgroundImageFix" result="effect1_dropShadow"/><feBlend in="SourceGraphic" in2="effect1_dropShadow" result="shape"/></filter></defs></svg>