<svg width="30" height="30" viewBox="0 0 30 30" fill="none" xmlns="http://www.w3.org/2000/svg">
<path d="M16.4335 18.9938L18.9935 16.4338L29.2336 26.6739C29.9405 27.3808 29.9405 28.5269 29.2336 29.2339C28.5266 29.9408 27.3805 29.9408 26.6736 29.2339L16.4335 18.9938Z" fill="#0979CF"/>
<path fill-rule="evenodd" clip-rule="evenodd" d="M19.3138 19.3138C23.7321 14.8955 23.7321 7.73202 19.3138 3.31372C14.8955 -1.10457 7.73202 -1.10457 3.31372 3.31372C-1.10457 7.73202 -1.10457 14.8955 3.31372 19.3138C7.73202 23.7321 14.8955 23.7321 19.3138 19.3138ZM17.3934 17.3938C20.7513 14.0359 20.7513 8.59165 17.3934 5.23374C14.0354 1.87584 8.59121 1.87584 5.2333 5.23374C1.8754 8.59165 1.8754 14.0359 5.2333 17.3938C8.59121 20.7517 14.0354 20.7517 17.3934 17.3938Z" fill="#0979CF"/>
</svg>
