<svg width="100" height="100" viewBox="0 0 100 100" fill="none" xmlns="http://www.w3.org/2000/svg"><path d="M97 77.975a50.993 50.993 0 0 1-22.482 5.194c-28.622 0-51.825-23.548-51.825-52.597 0-11.402 3.575-21.956 9.65-30.572C14.98 8.497 3 26.53 3 47.403 3 76.452 26.203 100 54.825 100 72.212 100 87.6 91.31 97 77.975zM85 37l.898 2.764h2.906l-2.35 1.708.897 2.764L85 42.528l-2.351 1.708.898-2.764-2.351-1.708h2.906L85 37z" fill="#93BEFF"/><path d="M60 25l1.347 4.146h4.36l-3.527 2.562 1.347 4.146L60 33.292l-3.527 2.562 1.347-4.146-3.526-2.562h4.359L60 25zM81 6l1.347 4.146h4.36l-3.527 2.562 1.347 4.146L81 14.292l-3.527 2.562 1.347-4.146-3.526-2.562h4.359L81 6z" fill="#93BEFF"/></svg>