<svg width="100" height="100" viewBox="0 0 100 100" fill="none" xmlns="http://www.w3.org/2000/svg"><path d="M29.25 65.596c-.141.002-.283.004-.425.004C17.324 65.6 8 56.276 8 44.775c0-6.917 3.373-13.047 8.563-16.834a20.824 20.824 0 0 1-.913-6.116C15.65 10.324 24.974 1 36.475 1c8.006 0 14.956 4.517 18.441 11.14.645-.06 1.298-.09 1.959-.09 8.433 0 15.696 5.013 18.97 12.223C85.597 26.007 93 34.526 93 44.775 93 56.276 83.676 65.6 72.175 65.6c-.142 0-.284-.001-.425-.004v.004h-42.5v-.004z" fill="#fff"/><rect x="17" y="83" width="4" height="45" rx="2" transform="rotate(-90 17 83)" fill="url(#paint0_linear)"/><rect x="17" y="75" width="4" height="69" rx="2" transform="rotate(-90 17 75)" fill="url(#paint1_linear)"/><rect x="17" y="91" width="4" height="14" rx="2" transform="rotate(-90 17 91)" fill="url(#paint2_linear)"/><rect x="35" y="91" width="4" height="51" rx="2" transform="rotate(-90 35 91)" fill="url(#paint3_linear)"/><rect x="66" y="83" width="4" height="20" rx="2" transform="rotate(-90 66 83)" fill="url(#paint4_linear)"/><defs><linearGradient id="paint0_linear" x1="21.8" y1="83" x2="16" y2="83" gradientUnits="userSpaceOnUse"><stop stop-color="#C4C4C4"/><stop offset="1" stop-color="#C2C2C2" stop-opacity=".3"/></linearGradient><linearGradient id="paint1_linear" x1="21.8" y1="75" x2="16" y2="75" gradientUnits="userSpaceOnUse"><stop stop-color="#C4C4C4"/><stop offset="1" stop-color="#C2C2C2" stop-opacity=".3"/></linearGradient><linearGradient id="paint2_linear" x1="21.8" y1="91" x2="16" y2="91" gradientUnits="userSpaceOnUse"><stop stop-color="#C4C4C4"/><stop offset="1" stop-color="#C2C2C2" stop-opacity=".3"/></linearGradient><linearGradient id="paint3_linear" x1="39.8" y1="91" x2="34" y2="91" gradientUnits="userSpaceOnUse"><stop stop-color="#C4C4C4"/><stop offset="1" stop-color="#C2C2C2" stop-opacity=".3"/></linearGradient><linearGradient id="paint4_linear" x1="70.8" y1="83" x2="65" y2="83" gradientUnits="userSpaceOnUse"><stop stop-color="#C4C4C4"/><stop offset="1" stop-color="#C2C2C2" stop-opacity=".3"/></linearGradient></defs></svg>