<svg width="100" height="100" viewBox="0 0 100 100" fill="none" xmlns="http://www.w3.org/2000/svg"><path d="M29.25 65.596c-.141.002-.283.004-.425.004C17.324 65.6 8 56.276 8 44.775c0-6.917 3.373-13.047 8.563-16.834a20.824 20.824 0 0 1-.913-6.116C15.65 10.324 24.974 1 36.475 1c8.006 0 14.956 4.517 18.441 11.14.645-.06 1.298-.09 1.959-.09 8.433 0 15.696 5.013 18.97 12.223C85.597 26.007 93 34.526 93 44.775 93 56.276 83.676 65.6 72.175 65.6c-.142 0-.284-.001-.425-.004v.004h-42.5v-.004z" fill="#fff"/><rect x="25" y="58" width="8" height="30" rx="4" fill="url(#paint0_linear)"/><rect x="70" y="58" width="8" height="20" rx="4" fill="url(#paint1_linear)"/><rect x="40" y="69" width="8" height="28" rx="4" fill="url(#paint2_linear)"/><rect x="55" y="58" width="8" height="30" rx="4" fill="url(#paint3_linear)"/><defs><linearGradient id="paint0_linear" x1="29" y1="58" x2="29" y2="88" gradientUnits="userSpaceOnUse"><stop stop-color="#319CFF"/><stop offset="1" stop-color="#75BDFF"/></linearGradient><linearGradient id="paint1_linear" x1="74" y1="58" x2="74" y2="78" gradientUnits="userSpaceOnUse"><stop stop-color="#319CFF"/><stop offset="1" stop-color="#75BDFF"/></linearGradient><linearGradient id="paint2_linear" x1="44" y1="69" x2="44" y2="97" gradientUnits="userSpaceOnUse"><stop stop-color="#319CFF"/><stop offset="1" stop-color="#75BDFF"/></linearGradient><linearGradient id="paint3_linear" x1="59" y1="58" x2="59" y2="88" gradientUnits="userSpaceOnUse"><stop stop-color="#319CFF"/><stop offset="1" stop-color="#75BDFF"/></linearGradient></defs></svg>