<svg width="100" height="100" viewBox="0 0 100 100" fill="none" xmlns="http://www.w3.org/2000/svg"><path d="M29.25 65.596c-.141.002-.283.004-.425.004C17.324 65.6 8 56.276 8 44.775c0-6.917 3.373-13.047 8.563-16.834a20.824 20.824 0 0 1-.913-6.116C15.65 10.324 24.974 1 36.475 1c8.006 0 14.956 4.517 18.441 11.14.645-.06 1.298-.09 1.959-.09 8.433 0 15.696 5.013 18.97 12.223C85.597 26.007 93 34.526 93 44.775 93 56.276 83.676 65.6 72.175 65.6c-.142 0-.284-.001-.425-.004v.004h-42.5v-.004z" fill="#fff"/><path d="M49.731 74.893a.893.893 0 1 1 1.786 0v5.052l2.793-2.792a.67.67 0 0 1 .947.947l-3.74 3.74v3.641h3.838l3.738-3.738a.67.67 0 0 1 .947.947L57.25 85.48h4.858a.893.893 0 1 1 0 1.786h-5.11l3.043 3.044a.67.67 0 0 1-.947.946l-3.99-3.99h-3.586v4.089l3.74 3.74a.67.67 0 0 1-.947.946l-2.793-2.792v4.857a.893.893 0 1 1-1.786 0v-5.106l-3.04 3.041a.67.67 0 0 1-.948-.947l3.988-3.988v-3.84h-3.64l-3.99 3.99a.67.67 0 0 1-.948-.946l3.044-3.044h-5.304a.893.893 0 1 1 0-1.786h5.052l-2.792-2.792a.67.67 0 0 1 .947-.947l3.739 3.74h3.892v-3.394L45.743 78.1a.67.67 0 1 1 .947-.947l3.041 3.04v-5.3z" fill="url(#paint0_linear)"/><path d="M76.732 65.893a.893.893 0 1 1 1.786 0v5.052l2.793-2.793a.67.67 0 0 1 .947.947l-3.74 3.74v3.642h3.837l3.738-3.738a.67.67 0 0 1 .947.947l-2.791 2.791h4.858a.893.893 0 1 1 0 1.786h-5.11l3.043 3.044a.67.67 0 1 1-.947.947l-3.99-3.991h-3.585v4.088l3.74 3.74a.67.67 0 0 1-.947.947l-2.793-2.793v4.858a.893.893 0 1 1-1.786 0V84l-3.042 3.043a.67.67 0 0 1-.947-.947l3.99-3.99v-3.838H73.09l-3.99 3.99a.67.67 0 0 1-.948-.946l3.044-3.044h-5.304a.893.893 0 1 1 0-1.786h5.051l-2.79-2.791a.67.67 0 0 1 .946-.947l3.738 3.738h3.894v-3.393L72.743 69.1a.67.67 0 1 1 .947-.947l3.042 3.042v-5.301z" fill="url(#paint1_linear)"/><path d="M22.732 65.893a.893.893 0 1 1 1.786 0v5.052l2.793-2.793a.67.67 0 0 1 .947.947l-3.74 3.74v3.642h3.837l3.738-3.738a.67.67 0 0 1 .947.947l-2.791 2.791h4.858a.893.893 0 1 1 0 1.786h-5.11l3.043 3.044a.67.67 0 1 1-.947.947l-3.99-3.991h-3.585v4.088l3.74 3.74a.67.67 0 0 1-.947.947l-2.793-2.793v4.858a.893.893 0 1 1-1.786 0V84l-3.042 3.043a.67.67 0 0 1-.947-.947l3.99-3.99v-3.838H19.09l-3.99 3.99a.67.67 0 0 1-.948-.946l3.044-3.044h-5.304a.893.893 0 1 1 0-1.786h5.051l-2.79-2.791a.67.67 0 0 1 .946-.947l3.738 3.738h3.894v-3.393L18.743 69.1a.67.67 0 1 1 .947-.947l3.042 3.042v-5.301z" fill="url(#paint2_linear)"/><defs><linearGradient id="paint0_linear" x1="50.5" y1="74" x2="50.5" y2="99" gradientUnits="userSpaceOnUse"><stop stop-color="#75BDFF"/><stop offset=".5" stop-color="#319CFF"/><stop offset=".99" stop-color="#75BDFF"/></linearGradient><linearGradient id="paint1_linear" x1="77.5" y1="65" x2="77.5" y2="90" gradientUnits="userSpaceOnUse"><stop stop-color="#75BDFF"/><stop offset=".5" stop-color="#319CFF"/><stop offset=".99" stop-color="#75BDFF"/></linearGradient><linearGradient id="paint2_linear" x1="23.5" y1="65" x2="23.5" y2="90" gradientUnits="userSpaceOnUse"><stop stop-color="#75BDFF"/><stop offset=".5" stop-color="#319CFF"/><stop offset=".99" stop-color="#75BDFF"/></linearGradient></defs></svg>