<svg width="100" height="100" viewBox="0 0 100 100" fill="none" xmlns="http://www.w3.org/2000/svg"><path d="M36 82h38.269C81 82 79.73 75 75 75" stroke="url(#paint0_linear)" stroke-width="3" stroke-linecap="round"/><path d="M26 76h38.269C70 76 69.73 69 65 69" stroke="url(#paint1_linear)" stroke-width="3" stroke-linecap="round"/><path d="M20 88h46.67c5.33 0 10.33 7 0 7" stroke="url(#paint2_linear)" stroke-width="3" stroke-linecap="round"/><path d="M29.25 65.596c-.141.002-.283.004-.425.004C17.324 65.6 8 56.276 8 44.775c0-6.917 3.373-13.047 8.563-16.834a20.824 20.824 0 0 1-.913-6.116C15.65 10.324 24.974 1 36.475 1c8.005 0 14.956 4.517 18.441 11.14.645-.06 1.298-.09 1.959-.09 8.434 0 15.696 5.013 18.97 12.223C85.597 26.007 93 34.526 93 44.775 93 56.276 83.676 65.6 72.175 65.6c-.142 0-.284-.001-.425-.004v.004h-42.5v-.004z" fill="#fff"/><defs><linearGradient id="paint0_linear" x1="87.522" y1="75" x2="25.266" y2="75" gradientUnits="userSpaceOnUse"><stop stop-color="#C4C4C4"/><stop offset="1" stop-color="#C2C2C2" stop-opacity=".3"/></linearGradient><linearGradient id="paint1_linear" x1="77.072" y1="69" x2="15.36" y2="69" gradientUnits="userSpaceOnUse"><stop stop-color="#C4C4C4"/><stop offset="1" stop-color="#C2C2C2" stop-opacity=".3"/></linearGradient><linearGradient id="paint2_linear" x1="83.222" y1="95" x2="6.829" y2="95" gradientUnits="userSpaceOnUse"><stop stop-color="#C4C4C4"/><stop offset="1" stop-color="#C2C2C2" stop-opacity=".3"/></linearGradient></defs></svg>